<svg width="360" height="211" viewBox="0 0 360 211" fill="none" xmlns="http://www.w3.org/2000/svg">
<path d="M357.171 0H2.82899C1.26658 0 0 1.24759 0 2.78657V208.213C0 209.752 1.26658 211 2.82899 211H357.171C358.733 211 360 209.752 360 208.213V2.78657C360 1.24759 358.733 0 357.171 0Z" fill="#BCBCBC"/>
<path fill-rule="evenodd" clip-rule="evenodd" d="M313.61 92.8515C316.499 95.5248 320.284 97.006 324.21 96.9999C328.409 96.9666 332.425 95.2664 335.383 92.2699C338.34 89.2734 340 85.2234 340 81.0024C340 76.7814 338.34 72.7314 335.383 69.7349C332.425 66.7384 328.409 65.0382 324.21 65.0049C320.284 64.9982 316.499 66.4787 313.61 69.1514C311.967 70.652 310.654 72.4814 309.755 74.5222C308.857 76.563 308.392 78.7701 308.392 81.0019C308.392 83.2337 308.857 85.4408 309.755 87.4816C310.654 89.5225 311.967 91.3519 313.61 92.8525V92.8515Z" fill="#E99F2B"/>
<path fill-rule="evenodd" clip-rule="evenodd" d="M337.926 89.9127C337.926 89.8479 337.938 89.7837 337.963 89.7238C337.987 89.6638 338.023 89.6094 338.069 89.5635C338.114 89.5177 338.169 89.4814 338.228 89.4568C338.288 89.4321 338.352 89.4195 338.416 89.4197C338.483 89.4166 338.549 89.4271 338.612 89.4504C338.674 89.4737 338.732 89.5094 338.78 89.5554C338.828 89.6014 338.867 89.6568 338.894 89.7182C338.921 89.7796 338.935 89.8457 338.935 89.9127C338.938 89.9819 338.926 90.0509 338.901 90.1152C338.875 90.1796 338.837 90.2381 338.789 90.287C338.74 90.336 338.682 90.3744 338.618 90.3998C338.554 90.4251 338.485 90.437 338.416 90.4347C338.35 90.4339 338.284 90.4197 338.223 90.3928C338.162 90.366 338.107 90.327 338.061 90.2783C338.015 90.2296 337.979 90.1722 337.956 90.1093C337.933 90.0465 337.923 89.9797 337.926 89.9127ZM338.416 90.3259C338.524 90.3231 338.627 90.2786 338.703 90.2016C338.779 90.1247 338.823 90.0212 338.825 89.9127C338.821 89.8074 338.776 89.7078 338.7 89.6358C338.623 89.5638 338.521 89.5253 338.416 89.5285C338.316 89.5308 338.22 89.572 338.149 89.6436C338.077 89.7151 338.036 89.8115 338.034 89.9127C338.035 90.017 338.075 90.117 338.146 90.1934C338.217 90.2698 338.313 90.317 338.416 90.3259ZM338.362 90.1612H338.253V89.6931H338.443C338.482 89.6887 338.521 89.6983 338.553 89.7201C338.607 89.7471 338.607 89.776 338.607 89.8309C338.607 89.8857 338.58 89.9417 338.525 89.9417L338.636 90.1612H338.499L338.443 89.9686H338.362V89.8848H338.469C338.496 89.8848 338.496 89.8578 338.496 89.8309C338.496 89.8039 338.496 89.804 338.469 89.777H338.359L338.362 90.1612Z" fill="#E99F2B"/>
<path fill-rule="evenodd" clip-rule="evenodd" d="M318.719 79.3115C318.664 78.7347 318.555 78.1859 318.445 77.6091H308.775C308.89 77.0431 309.036 76.4838 309.211 75.9335H317.983C317.791 75.3547 317.573 74.7872 317.326 74.231H309.895C310.167 73.6489 310.468 73.0814 310.797 72.5285H316.397C316.038 71.9411 315.637 71.3811 315.196 70.853H311.997C312.492 70.2454 313.031 69.6756 313.609 69.1485C311.327 67.0672 308.492 65.6968 305.449 65.2039C302.406 64.7109 299.287 65.1165 296.469 66.3714C293.651 67.6263 291.257 69.6765 289.576 72.2731C287.895 74.8697 287 77.9011 287 80.999C287 84.097 287.895 87.1283 289.576 89.7249C291.257 92.3216 293.651 94.3718 296.469 95.6267C299.287 96.8816 302.406 97.2871 305.449 96.7942C308.492 96.3012 311.327 94.9309 313.609 92.8496C314.18 92.3322 314.711 91.7721 315.198 91.174H311.997C311.566 90.6289 311.165 90.0606 310.796 89.4716H316.396C316.749 88.9287 317.059 88.3596 317.325 87.7691H309.894C309.637 87.2223 309.409 86.6624 309.21 86.0916H317.982C318.165 85.5324 318.32 84.9642 318.445 84.3891C318.686 83.2799 318.805 82.1474 318.801 81.012C318.801 80.4352 318.774 79.8584 318.719 79.3095V79.3115Z" fill="#BF0C24"/>
<path fill-rule="evenodd" clip-rule="evenodd" d="M337.926 84.7212C337.923 84.6544 337.934 84.5878 337.957 84.5252C337.98 84.4626 338.016 84.4054 338.061 84.3569C338.107 84.3084 338.162 84.2697 338.223 84.2429C338.284 84.2162 338.35 84.202 338.416 84.2013C338.485 84.1988 338.553 84.2105 338.617 84.2357C338.681 84.261 338.739 84.2991 338.788 84.3479C338.837 84.3966 338.875 84.4549 338.9 84.5191C338.926 84.5834 338.938 84.6521 338.935 84.7212C338.936 84.7898 338.922 84.8577 338.896 84.9211C338.87 84.9845 338.832 85.0421 338.784 85.0905C338.735 85.139 338.678 85.1775 338.615 85.2037C338.552 85.2298 338.484 85.2433 338.416 85.2431C338.283 85.2374 338.157 85.1797 338.066 85.0823C337.974 84.9848 337.924 84.8552 337.926 84.7212ZM338.416 85.1054C338.469 85.1092 338.521 85.1021 338.571 85.0845C338.621 85.0669 338.666 85.0393 338.705 85.0032C338.743 84.9672 338.774 84.9235 338.795 84.875C338.816 84.8265 338.827 84.7741 338.827 84.7212C338.827 84.6683 338.816 84.6159 338.795 84.5674C338.774 84.5189 338.743 84.4752 338.705 84.4392C338.666 84.4031 338.621 84.3754 338.571 84.3579C338.521 84.3403 338.469 84.3332 338.416 84.337C338.315 84.337 338.218 84.3775 338.146 84.4495C338.074 84.5216 338.034 84.6193 338.034 84.7212C338.034 84.8231 338.074 84.9208 338.146 84.9928C338.218 85.0649 338.315 85.1054 338.416 85.1054ZM338.362 84.9408H338.253V84.5017H338.551C338.605 84.5286 338.605 84.5855 338.605 84.6394C338.601 84.663 338.591 84.6853 338.577 84.7046C338.563 84.7238 338.545 84.7394 338.523 84.7501L338.634 84.9427H338.497L338.441 84.7781H338.36V84.6943H338.414C338.441 84.6943 338.47 84.6942 338.47 84.6673C338.497 84.6673 338.497 84.6403 338.497 84.6124C338.497 84.6053 338.494 84.5984 338.489 84.5933C338.484 84.5883 338.477 84.5855 338.47 84.5855C338.47 84.5565 338.441 84.5855 338.414 84.5855H338.36L338.362 84.9408Z" fill="white"/>
<path fill-rule="evenodd" clip-rule="evenodd" d="M308.227 85.6254C307.81 85.7544 307.379 85.8282 306.943 85.8449C306.122 85.8449 305.631 85.325 305.631 84.3889C305.637 84.1885 305.655 83.9885 305.685 83.7901L305.795 83.1595L305.876 82.6376L306.614 78.1338H308.253L308.062 79.1218H309.101L308.854 80.7694H307.815L307.379 83.4639C307.36 83.5538 307.351 83.6454 307.352 83.7373C307.352 84.0945 307.516 84.2362 307.926 84.2362C308.1 84.2335 308.274 84.2147 308.445 84.1803L308.227 85.6254ZM313.528 85.5715C312.959 85.734 312.37 85.8169 311.779 85.818C311.383 85.8665 310.982 85.8239 310.606 85.6935C310.229 85.563 309.887 85.3482 309.605 85.0652C309.323 84.7822 309.109 84.4385 308.979 84.0601C308.849 83.6817 308.807 83.2784 308.855 82.881C308.855 80.6007 310.112 78.9521 311.86 78.9521C312.173 78.9347 312.486 78.9852 312.778 79.1002C313.07 79.2152 313.334 79.3921 313.552 79.6187C313.77 79.8454 313.936 80.1166 314.041 80.4138C314.145 80.711 314.184 81.0273 314.156 81.3412C314.15 81.8867 314.086 82.4301 313.965 82.9619H310.549C310.529 83.0334 310.52 83.1073 310.522 83.1814C310.522 83.9498 311.041 84.3341 312.024 84.3341C312.639 84.3327 313.246 84.1922 313.8 83.9229L313.528 85.5715ZM312.516 81.6446V81.3143C312.53 81.2015 312.519 81.0869 312.483 80.979C312.448 80.8712 312.388 80.7728 312.31 80.691C312.231 80.6092 312.135 80.5462 312.029 80.5066C311.923 80.4669 311.81 80.4518 311.697 80.462C311.151 80.462 310.768 80.8732 310.605 81.6446H312.516ZM295.114 85.7092H293.418L294.403 79.474L292.19 85.7092H291.015L290.878 79.502L289.84 85.7092H288.173L289.511 77.6069H291.998L292.052 82.6056L293.719 77.6069H296.451L295.114 85.7092ZM299.239 82.7703C299.13 82.7499 299.02 82.7408 298.91 82.7433C297.927 82.7433 297.435 83.1276 297.435 83.7313C297.426 83.8191 297.435 83.9078 297.463 83.9916C297.491 84.0754 297.536 84.1524 297.595 84.2173C297.655 84.2822 297.728 84.3337 297.808 84.3682C297.889 84.4028 297.976 84.4198 298.064 84.4179C298.883 84.4209 299.211 83.7293 299.239 82.7723V82.7703ZM300.606 85.7092H299.13L299.157 85.0216C298.951 85.2998 298.676 85.5196 298.36 85.6595C298.044 85.7994 297.697 85.8547 297.353 85.82C297.134 85.804 296.919 85.7443 296.723 85.6441C296.527 85.5438 296.352 85.4052 296.21 85.2364C296.067 85.0675 295.96 84.8718 295.893 84.6607C295.827 84.4495 295.803 84.2272 295.824 84.0067C295.827 83.7182 295.872 83.4317 295.959 83.1564C296.233 82.1395 297.242 81.5089 298.801 81.4809C298.992 81.4809 299.291 81.4809 299.565 81.5079C299.606 81.3651 299.624 81.2171 299.62 81.0688C299.62 80.6277 299.265 80.4899 298.473 80.4899C297.991 80.4875 297.511 80.5623 297.052 80.7115L296.806 80.7664L296.696 80.7933L296.943 79.3104C297.585 79.086 298.258 78.9655 298.938 78.9531C300.411 78.9531 301.205 79.6407 301.205 80.9041C301.222 81.336 301.194 81.7684 301.122 82.1944L300.74 84.5546L300.686 84.9677L300.659 85.298L300.633 85.5176L300.606 85.7092ZM321.778 79.1717C322.316 79.1903 322.842 79.3418 323.309 79.6128L323.607 77.8544C323.464 77.7914 323.318 77.7364 323.17 77.6897L322.486 77.4971C321.597 77.3308 320.679 77.4168 319.836 77.7456C319.462 77.9921 319.122 78.2871 318.824 78.6228L318.606 78.5679L316.859 79.8044L316.94 79.1168H315.136L314.072 85.7032H315.792L316.42 82.1625C316.42 82.1625 316.667 81.6635 316.775 81.5029C316.881 81.3522 317.027 81.234 317.195 81.1614C317.364 81.0888 317.55 81.0647 317.731 81.0917H317.868C317.811 81.5097 317.784 81.9312 317.787 82.3531C317.787 84.4957 318.988 85.8459 320.846 85.8459C321.355 85.8427 321.861 85.7689 322.35 85.6264L322.648 83.7592C322.209 84.025 321.711 84.176 321.199 84.1983C320.189 84.1983 319.589 83.4299 319.589 82.2224C319.592 80.4361 320.493 79.1737 321.778 79.1737V79.1717ZM336.287 77.6069L335.904 79.9131C335.752 79.6309 335.527 79.3952 335.253 79.2309C334.978 79.0667 334.665 78.98 334.346 78.98C333.865 78.9946 333.399 79.1437 332.998 79.4104C332.597 79.6772 332.279 80.051 332.078 80.4899V80.463L330.986 79.8054L331.096 79.1178H329.266L328.227 85.7102H329.921L330.495 82.1675C330.495 82.1675 330.933 81.6685 331.041 81.5079C331.132 81.3894 331.248 81.2916 331.379 81.2207C331.511 81.1499 331.656 81.1077 331.805 81.0967C331.599 81.7254 331.499 82.384 331.507 83.0457C331.507 84.6933 332.353 85.7921 333.61 85.7921C333.913 85.7988 334.215 85.7354 334.49 85.6068C334.765 85.4783 335.008 85.288 335.198 85.0506L335.115 85.7102H336.727L338.039 77.6079L336.287 77.6069ZM334.182 84.1424C333.608 84.1424 333.309 83.7033 333.309 82.8521C333.309 81.5607 333.855 80.6277 334.647 80.6277C335.243 80.6277 335.549 81.0957 335.549 81.918C335.548 83.2383 335.002 84.1454 334.181 84.1454L334.182 84.1424ZM326.287 82.7703C326.179 82.7499 326.069 82.7408 325.959 82.7433C324.974 82.7433 324.483 83.1276 324.483 83.7313C324.474 83.819 324.484 83.9076 324.511 83.9913C324.539 84.075 324.584 84.1519 324.643 84.2169C324.702 84.2818 324.775 84.3333 324.855 84.3679C324.936 84.4026 325.023 84.4196 325.111 84.4179C325.932 84.4209 326.259 83.7293 326.287 82.7723V82.7703ZM327.652 85.7092H326.15L326.208 85.0266C326.001 85.3047 325.727 85.5243 325.411 85.6642C325.096 85.8041 324.749 85.8595 324.406 85.825C324.181 85.8157 323.961 85.7608 323.758 85.6636C323.556 85.5664 323.375 85.429 323.226 85.2595C323.078 85.0901 322.965 84.8921 322.895 84.6777C322.824 84.4632 322.798 84.2366 322.817 84.0117C322.817 82.4469 323.992 81.4859 325.849 81.4859C326.096 81.4823 326.342 81.4913 326.587 81.5129C326.635 81.371 326.663 81.2233 326.67 81.0738C326.67 80.6327 326.315 80.4969 325.496 80.4969C325.014 80.496 324.534 80.5701 324.074 80.7165L323.856 80.7714L323.746 80.7983L323.991 79.3154C324.633 79.0914 325.306 78.9708 325.985 78.9581C327.461 78.9581 328.225 79.6457 328.225 80.9091C328.257 81.3409 328.23 81.7752 328.144 82.1994L327.788 84.5616L327.735 84.9727L327.679 85.303L327.652 85.5226V85.7152V85.7092ZM304.184 80.5199C304.614 80.5222 305.043 80.5586 305.467 80.6287L305.713 79.0908C305.222 79.037 304.566 78.9531 304.183 78.9531C302.271 78.9531 301.641 79.998 301.641 81.2045C301.635 81.605 301.756 81.997 301.987 82.3233C302.218 82.6496 302.547 82.8929 302.926 83.0178C303.61 83.3481 303.72 83.402 303.72 83.7054C303.72 84.1165 303.367 84.363 302.71 84.363C302.179 84.3636 301.652 84.271 301.152 84.0895L300.96 85.5994L300.987 85.6264L301.316 85.6813C301.46 85.7167 301.607 85.7447 301.754 85.7651C302.163 85.792 302.519 85.819 302.737 85.819C304.649 85.819 305.443 85.0775 305.443 83.6235C305.455 83.2187 305.336 82.8209 305.104 82.4896C304.873 82.1583 304.541 81.9112 304.158 81.7853C303.42 81.455 303.337 81.4011 303.337 81.0977C303.337 80.7943 303.665 80.5209 304.184 80.5209V80.5199Z" fill="#082C5C"/>
<path fill-rule="evenodd" clip-rule="evenodd" d="M324.078 77.3335L323.78 79.0919C323.314 78.8214 322.789 78.6706 322.251 78.6528C320.966 78.6528 320.066 79.9142 320.066 81.7005C320.066 82.937 320.662 83.6784 321.679 83.6784C322.186 83.653 322.68 83.5124 323.125 83.2673L322.827 85.1055C322.34 85.2555 321.835 85.339 321.325 85.3539C319.468 85.3539 318.318 84.0068 318.318 81.8382C318.318 78.9532 319.907 76.9214 322.17 76.9214C322.437 76.9167 322.704 76.9448 322.964 77.0052L323.648 77.1699C323.869 77.2517 323.922 77.2787 324.087 77.3325L324.078 77.3335ZM318.559 78.5431H318.396C317.822 78.5431 317.494 78.8185 316.974 79.6148L317.138 78.5979H315.579L314.515 85.1903H316.235C316.865 81.1527 317.03 80.4661 317.848 80.4661H317.958C318.083 79.8056 318.304 79.1669 318.612 78.57L318.559 78.5431ZM308.668 85.1055C308.275 85.2519 307.859 85.3269 307.44 85.327C307.249 85.3448 307.056 85.3186 306.877 85.2504C306.697 85.1823 306.536 85.074 306.404 84.9337C306.272 84.7934 306.174 84.6248 306.117 84.4407C306.059 84.2566 306.044 84.0618 306.073 83.871C306.079 83.6778 306.097 83.4851 306.128 83.2942L306.238 82.6346L306.321 82.1147L307.057 77.609H308.753L308.561 78.5969H309.434L309.215 80.2176H308.341L307.877 82.9639C307.856 83.0541 307.847 83.1467 307.85 83.2393C307.85 83.5677 308.014 83.7054 308.424 83.7054C308.581 83.7194 308.739 83.7007 308.888 83.6505L308.669 85.1044L308.668 85.1055ZM302.085 80.6856C302.08 81.0888 302.201 81.4834 302.431 81.8136C302.661 82.1438 302.989 82.393 303.368 82.5258C304.079 82.8541 304.189 82.9649 304.189 83.2383C304.189 83.6515 303.891 83.8441 303.204 83.8441C302.684 83.84 302.168 83.7562 301.674 83.5956L301.429 85.1055L301.51 85.1344L301.808 85.1893C301.96 85.2276 302.116 85.2457 302.272 85.2432C302.58 85.2853 302.89 85.304 303.201 85.2991C305.005 85.2991 305.853 84.6115 305.853 83.1036C305.879 82.7071 305.775 82.3128 305.558 81.9807C305.341 81.6486 305.022 81.3967 304.649 81.2634C303.912 80.9331 303.83 80.8523 303.83 80.5489C303.83 80.1917 304.128 80.027 304.678 80.027C305.089 80.0304 305.499 80.0584 305.906 80.1108L306.154 78.6009C305.656 78.5161 305.154 78.47 304.649 78.4632C302.733 78.4622 302.052 79.4771 302.081 80.6866L302.085 80.6856ZM337.165 85.1893H335.553L335.634 84.5566C335.439 84.7854 335.196 84.9681 334.922 85.0916C334.648 85.2151 334.351 85.2764 334.051 85.2712C332.794 85.2712 331.973 84.2013 331.973 82.5538C331.973 80.3583 333.257 78.4892 334.76 78.4892C335.087 78.4908 335.408 78.5746 335.695 78.7328C335.981 78.8911 336.224 79.1188 336.401 79.3953L336.783 77.087H338.474L337.162 85.1893H337.165ZM334.65 83.6515C335.445 83.6515 335.989 82.7174 335.989 81.4271C335.989 80.5748 335.691 80.1297 335.087 80.1297C334.323 80.1297 333.749 81.0359 333.749 82.3252C333.746 83.2094 334.046 83.6518 334.647 83.6525L334.65 83.6515ZM313.914 85.0486C313.341 85.2355 312.741 85.3285 312.138 85.324C310.224 85.324 309.241 84.3071 309.241 82.3582C309.241 80.1048 310.498 78.4293 312.219 78.4293C312.534 78.4098 312.849 78.4587 313.144 78.5727C313.438 78.6866 313.704 78.8629 313.925 79.0895C314.145 79.3162 314.314 79.588 314.421 79.8863C314.528 80.1846 314.569 80.5025 314.543 80.8183C314.538 81.3745 314.465 81.9279 314.324 82.4659H310.935C310.914 82.528 310.905 82.5932 310.908 82.6585C310.908 83.4289 311.427 83.8132 312.41 83.8132C313.027 83.8244 313.637 83.6825 314.186 83.4L313.914 85.0486ZM312.956 81.1217V80.7944C312.97 80.6817 312.959 80.5672 312.923 80.4594C312.888 80.3516 312.828 80.2533 312.75 80.1716C312.671 80.09 312.575 80.0272 312.469 79.9878C312.363 79.9484 312.25 79.9335 312.137 79.9442C311.591 79.9442 311.208 80.3553 311.045 81.1247L312.956 81.1217ZM295.551 85.1853H293.857L294.84 78.9502L292.627 85.1853H291.452L291.315 79.0071L290.278 85.1853H288.689L290.028 77.0831H292.488L292.569 82.1087L294.208 77.0831H296.889L295.551 85.1853ZM299.786 82.2464C299.622 82.2464 299.541 82.2194 299.404 82.2194C298.448 82.2194 297.955 82.5767 297.955 83.2344C297.943 83.3186 297.95 83.4044 297.975 83.4857C298 83.567 298.042 83.6418 298.099 83.7048C298.156 83.7677 298.226 83.8174 298.304 83.8501C298.382 83.8828 298.466 83.8978 298.551 83.894C299.267 83.899 299.755 83.2383 299.786 82.2504V82.2464ZM301.046 85.1853H299.624L299.651 84.4977C299.436 84.7672 299.16 84.9805 298.846 85.1196C298.532 85.2586 298.189 85.3191 297.847 85.2961C297.624 85.2932 297.405 85.2432 297.202 85.1495C297 85.0557 296.82 84.9203 296.673 84.752C296.526 84.5836 296.416 84.3861 296.35 84.1723C296.284 83.9585 296.264 83.7331 296.29 83.5108C296.29 81.8901 297.382 80.956 299.295 80.956C299.487 80.956 299.734 80.983 300.006 81.0109C300.044 80.8773 300.062 80.7387 300.06 80.5998C300.06 80.1607 299.762 80.001 298.968 80.001C298.489 79.9947 298.012 80.05 297.548 80.1657L297.301 80.2475L297.137 80.2765L297.384 78.7935C298.047 78.579 298.738 78.4676 299.433 78.4632C300.909 78.4632 301.701 79.1209 301.701 80.3853C301.691 80.8277 301.645 81.2685 301.564 81.7035L301.182 84.0387L301.127 84.4499L301.1 84.7802L301.073 85.0267L301.047 85.1913L301.046 85.1853ZM326.837 82.2464C326.646 82.2464 326.563 82.2194 326.455 82.2194C325.47 82.2194 324.978 82.5767 324.978 83.2344C324.969 83.3209 324.979 83.4083 325.007 83.4906C325.035 83.5729 325.08 83.6481 325.14 83.7108C325.2 83.7736 325.273 83.8225 325.354 83.8542C325.434 83.8858 325.521 83.8994 325.607 83.894C326.291 83.894 326.808 83.2344 326.837 82.2464ZM328.094 85.1853H326.672L326.699 84.4977C326.485 84.7671 326.209 84.9803 325.895 85.1193C325.581 85.2583 325.238 85.319 324.895 85.2961C324.673 85.2932 324.453 85.2432 324.251 85.1495C324.049 85.0557 323.868 84.9203 323.721 84.752C323.575 84.5836 323.465 84.3861 323.399 84.1723C323.333 83.9585 323.312 83.7331 323.339 83.5108C323.339 81.8901 324.431 80.956 326.344 80.956C326.535 80.956 326.781 80.983 327.028 81.0109C327.071 80.8776 327.099 80.7396 327.109 80.5998C327.109 80.1607 326.811 80.001 326.017 80.001C325.53 79.9948 325.044 80.0501 324.571 80.1657L324.35 80.2475L324.187 80.2765L324.434 78.7935C325.096 78.579 325.787 78.4676 326.483 78.4632C327.958 78.4632 328.723 79.1209 328.723 80.3853C328.727 80.8285 328.681 81.2707 328.586 81.7035L328.23 84.0387L328.177 84.4499L328.122 84.7802L328.095 85.0267V85.1913L328.094 85.1853ZM332.683 78.539H332.517C331.945 78.539 331.618 78.8145 331.097 79.6109L331.261 78.5939H329.702L328.664 85.1863H330.36C330.987 81.1487 331.154 80.4621 331.972 80.4621H332.08C332.206 79.8012 332.427 79.1624 332.736 78.566L332.683 78.539Z" fill="white"/>
<path d="M295.447 42.2415L293.937 35.3901C293.827 34.9929 293.57 34.6464 293.211 34.4143C292.853 34.1822 292.419 34.0801 291.987 34.1268H285.061L285 34.4398C290.395 35.6761 293.963 38.6593 295.447 42.2415Z" fill="#F68A0A"/>
<path d="M311.498 34.2649H307.023L304.228 49.7724H308.696L311.498 34.2649Z" fill="#004A89"/>
<path d="M298.175 49.7577L305.214 34.2764H300.477L296.099 44.8525L295.631 43.2557C294.21 40.629 292.072 38.4095 289.439 36.8272L293.441 49.7605L298.175 49.7577Z" fill="#004A89"/>
<path d="M324.263 44.7022C324.279 42.9405 323.081 41.598 320.507 40.4893C318.941 39.7738 317.986 39.2949 317.997 38.5682C317.997 37.9263 318.807 37.2359 320.56 37.2359C321.706 37.2117 322.846 37.4142 323.905 37.8303L324.309 38.0064L324.917 34.6469C323.631 34.2098 322.273 33.9909 320.907 34.0003C316.49 34.0003 313.379 36.1002 313.35 39.116C313.323 41.3455 315.573 42.5864 317.27 43.329C319.011 44.0864 319.593 44.5718 319.582 45.2501C319.57 46.2907 318.197 46.7631 316.91 46.7631C315.458 46.8037 314.016 46.525 312.697 45.9488L312.126 45.701L311.497 49.177C313.091 49.7327 314.778 50.0114 316.477 49.9996C321.173 49.9987 324.228 47.9239 324.263 44.7022Z" fill="#004A89"/>
<path d="M329.58 47.448L335.306 47.4536C335.442 47.994 335.85 49.7771 335.85 49.7771H340L336.379 34.2818H332.93C332.444 34.2224 331.952 34.3159 331.528 34.5478C331.105 34.7797 330.774 35.1371 330.587 35.5647L323.947 49.7771H328.646C328.646 49.7771 329.405 47.8672 329.58 47.448ZM332.645 39.9379C332.622 39.9799 333.014 39.0407 333.236 38.4575L333.539 39.7944C333.539 39.7944 334.392 43.4987 334.571 44.272H330.867C331.236 43.3813 332.641 39.9388 332.641 39.9388L332.645 39.9379Z" fill="#004A89"/>
</svg>
